<svg width="25" height="25" viewBox="0 0 25 25" fill="none" xmlns="http://www.w3.org/2000/svg">
<g clip-path="url(#clip0_69_11)">
<path d="M23.6846 19.9708C23.6846 20.5012 23.4739 21.0099 23.0988 21.385C22.7237 21.7601 22.215 21.9708 21.6846 21.9708H3.68457C3.15414 21.9708 2.64543 21.7601 2.27036 21.385C1.89528 21.0099 1.68457 20.5012 1.68457 19.9708V8.97076C1.68457 8.44033 1.89528 7.93162 2.27036 7.55655C2.64543 7.18148 3.15414 6.97076 3.68457 6.97076H7.68457L9.68457 3.97076H15.6846L17.6846 6.97076H21.6846C22.215 6.97076 22.7237 7.18148 23.0988 7.55655C23.4739 7.93162 23.6846 8.44033 23.6846 8.97076V19.9708Z" stroke="black" stroke-width="2" stroke-linecap="round" stroke-linejoin="round"/>
<path d="M12.6846 17.9708C14.8937 17.9708 16.6846 16.1799 16.6846 13.9708C16.6846 11.7616 14.8937 9.97076 12.6846 9.97076C10.4754 9.97076 8.68457 11.7616 8.68457 13.9708C8.68457 16.1799 10.4754 17.9708 12.6846 17.9708Z" stroke="black" stroke-width="2" stroke-linecap="round" stroke-linejoin="round"/>
</g>
<defs>
<clipPath id="clip0_69_11">
<rect width="24" height="24" fill="white" transform="translate(0.68457 0.970764)"/>
</clipPath>
</defs>
</svg>
