<svg width="36" height="37" viewBox="0 0 36 37" fill="none" xmlns="http://www.w3.org/2000/svg">
<path d="M18 36C27.3888 36 35 28.165 35 18.5C35 8.83502 27.3888 1 18 1C8.61116 1 1 8.83502 1 18.5C1 28.165 8.61116 36 18 36Z" fill="#D18290" stroke="#D18290" stroke-width="2" stroke-linecap="round" stroke-linejoin="round"/>
<path d="M9 12H11H27" stroke="white" stroke-width="2.5" stroke-linecap="round" stroke-linejoin="round"/>
<path d="M25 12V26C25 26.5304 24.7893 27.0391 24.4142 27.4142C24.0391 27.7893 23.5304 28 23 28H13C12.4696 28 11.9609 27.7893 11.5858 27.4142C11.2107 27.0391 11 26.5304 11 26V12M14 12V10C14 9.46957 14.2107 8.96086 14.5858 8.58579C14.9609 8.21071 15.4696 8 16 8H20C20.5304 8 21.0391 8.21071 21.4142 8.58579C21.7893 8.96086 22 9.46957 22 10V12" stroke="white" stroke-width="2.5" stroke-linecap="round" stroke-linejoin="round"/>
<path d="M16 17V23" stroke="white" stroke-width="2.5" stroke-linecap="round" stroke-linejoin="round"/>
<path d="M20 17V23" stroke="white" stroke-width="2.5" stroke-linecap="round" stroke-linejoin="round"/>
</svg>
