<svg width="39" height="39" viewBox="0 0 39 39" fill="none" xmlns="http://www.w3.org/2000/svg">
<path d="M19.5 0C8.73113 0 0 8.73113 0 19.5C0 30.2689 8.73113 39 19.5 39C30.2689 39 39 30.2689 39 19.5C39 8.73113 30.2689 0 19.5 0ZM21.7977 19.5C21.7977 19.5 26.8986 24.6009 27.1489 24.8511C27.7843 25.4865 27.7843 26.5151 27.1489 27.1489C26.5135 27.7843 25.4849 27.7843 24.8511 27.1489C24.6009 26.9003 19.5 21.7977 19.5 21.7977C19.5 21.7977 14.3991 26.8986 14.1489 27.1489C13.5135 27.7843 12.4849 27.7843 11.8511 27.1489C11.2158 26.5135 11.2158 25.4849 11.8511 24.8511C12.0998 24.6009 17.2023 19.5 17.2023 19.5C17.2023 19.5 12.1014 14.3991 11.8511 14.1489C11.2158 13.5135 11.2158 12.4849 11.8511 11.8511C12.4865 11.2158 13.5151 11.2158 14.1489 11.8511C14.3991 12.0998 19.5 17.2023 19.5 17.2023C19.5 17.2023 24.6009 12.1014 24.8511 11.8511C25.4865 11.2158 26.5151 11.2158 27.1489 11.8511C27.7843 12.4865 27.7843 13.5151 27.1489 14.1489C26.9003 14.3991 21.7977 19.5 21.7977 19.5Z" fill="#D18290"/>
</svg>
