<svg width="49" height="49" viewBox="0 0 49 49" fill="none" xmlns="http://www.w3.org/2000/svg">
<path d="M24.4999 4.89999C13.6758 4.89999 4.8999 13.6759 4.8999 24.5C4.8999 35.3241 13.6758 44.1 24.4999 44.1C35.324 44.1 44.0999 35.3241 44.0999 24.5C44.0999 13.6759 35.324 4.89999 24.4999 4.89999ZM35.4547 20.7548L23.1067 33.1028C22.7996 33.4098 22.3847 33.5813 21.9519 33.5813C21.5191 33.5813 21.1026 33.4098 20.7971 33.1028L15.1572 27.4629C14.5186 26.8242 14.5186 25.792 15.1572 25.1533C15.7959 24.5147 16.8281 24.5147 17.4668 25.1533L21.9519 29.6385L33.1451 18.4452C33.7838 17.8066 34.816 17.8066 35.4547 18.4452C36.0933 19.0839 36.0933 20.1161 35.4547 20.7548Z" fill="#ACD3A9"/>
</svg>
