<svg width="25" height="21" viewBox="0 0 25 21" fill="none" xmlns="http://www.w3.org/2000/svg">
<path d="M23.6846 17.9708C23.6846 18.5012 23.4739 19.0099 23.0988 19.385C22.7237 19.7601 22.215 19.9708 21.6846 19.9708H3.68457C3.15414 19.9708 2.64543 19.7601 2.27036 19.385C1.89528 19.0099 1.68457 18.5012 1.68457 17.9708V6.97076C1.68457 6.44033 1.89528 5.93162 2.27036 5.55655C2.64543 5.18148 3.15414 4.97076 3.68457 4.97076H7.68457L9.68457 1.97076H15.6846L17.6846 4.97076H21.6846C22.215 4.97076 22.7237 5.18148 23.0988 5.55655C23.4739 5.93162 23.6846 6.44033 23.6846 6.97076V17.9708Z" stroke="black" stroke-width="2" stroke-linecap="round" stroke-linejoin="round"/>
</svg>
